Daubenton_next_italic.ufo
<glyph name="exclam" format="1">
  <advance width="298"/>
  <unicode hex="0021"/>
  <outline>
    <contour>
      <point x="154" y="146" type="line"/>
      <point x="169" y="712" type="line"/>
      <point x="80" y="712" type="line"/>
      <point x="95" y="146" type="line"/>
    </contour>
    <contour>
      <point x="189" y="28" type="line"/>
      <point x="128" y="89" type="line"/>
      <point x="67" y="28" type="line"/>
      <point x="128" y="-33" type="line"/>
    </contour>
  </outline>
</glyph>
<glyph name="quotesingle" format="1">
  <advance width="215"/>
  <unicode hex="0027"/>
  <outline>
    <contour>
      <point x="29" y="746" type="line" smooth="yes"/>
      <point x="29" y="746"/>
      <point x="53" y="708"/>
      <point x="53" y="673" type="curve" smooth="yes"/>
      <point x="53" y="638"/>
      <point x="29" y="582"/>
      <point x="29" y="582" type="curve" smooth="yes"/>
      <point x="29" y="582"/>
      <point x="133" y="651"/>
      <point x="177" y="746" type="curve"/>
    </contour>
  </outline>
</glyph>
<glyph name="three" format="1">
  <advance width="611"/>
  <unicode hex="0033"/>
  <outline>
    <contour>
      <point x="451" y="395" type="curve" smooth="yes"/>
      <point x="423" y="411"/>
      <point x="391" y="422"/>
      <point x="357" y="426" type="curve"/>
      <point x="538" y="710" type="line"/>
      <point x="193" y="710" type="line"/>
      <point x="183" y="587" type="line"/>
      <point x="240" y="644" type="line"/>
      <point x="421" y="644" type="line"/>
      <point x="239" y="360" type="line"/>
      <point x="314" y="360" type="line"/>
      <point x="410" y="358"/>
      <point x="486" y="292"/>
      <point x="486" y="212" type="curve" smooth="yes"/>
      <point x="486" y="130"/>
      <point x="407" y="64"/>
      <point x="309" y="64" type="curve" smooth="yes"/>
      <point x="206" y="60"/>
      <point x="129" y="138"/>
      <point x="132" y="226" type="curve"/>
      <point x="96" y="145" type="line"/>
      <point x="45" y="32" type="line"/>
      <point x="128" y="89" type="line"/>
      <point x="128" y="89" type="line"/>
      <point x="171" y="34"/>
      <point x="242" y="-1"/>
      <point x="323" y="-1" type="curve" smooth="yes"/>
      <point x="455" y="-1"/>
      <point x="563" y="95"/>
      <point x="563" y="214" type="curve" smooth="yes"/>
      <point x="563" y="290"/>
      <point x="518" y="357"/>
    </contour>
  </outline>
</glyph>
<glyph name="six" format="1">
  <advance width="582"/>
  <unicode hex="0036"/>
  <outline>
    <contour>
      <point x="289" y="423" type="curve" smooth="yes"/>
      <point x="228" y="423"/>
      <point x="173" y="403"/>
      <point x="131" y="370" type="curve"/>
      <point x="165" y="547"/>
      <point x="339" y="682"/>
      <point x="479" y="702" type="curve"/>
      <point x="467" y="704"/>
      <point x="454" y="705"/>
      <point x="442" y="705" type="curve" smooth="yes"/>
      <point x="256" y="705"/>
      <point x="45" y="506"/>
      <point x="45" y="260" type="curve" smooth="yes"/>
      <point x="45" y="235"/>
      <point x="46" y="212"/>
      <point x="49" y="188" type="curve" smooth="yes"/>
      <point x="49" y="187"/>
      <point x="50" y="185"/>
      <point x="50" y="184" type="curve" smooth="yes"/>
      <point x="50" y="184"/>
      <point x="50" y="184"/>
      <point x="50" y="184" type="curve" smooth="yes"/>
      <point x="50" y="183"/>
      <point x="50" y="182"/>
      <point x="50" y="181" type="curve" smooth="yes"/>
      <point x="52" y="171"/>
      <point x="54" y="160"/>
      <point x="58" y="150" type="curve" smooth="yes"/>
      <point x="75" y="95"/>
      <point x="117" y="49"/>
      <point x="172" y="22" type="curve" smooth="yes"/>
      <point x="206" y="5"/>
      <point x="246" y="-5"/>
      <point x="289" y="-5" type="curve" smooth="yes"/>
      <point x="309" y="-5"/>
      <point x="329" y="-2"/>
      <point x="347" y="2" type="curve" smooth="yes"/>
      <point x="452" y="25"/>
      <point x="529" y="109"/>
      <point x="529" y="209" type="curve" smooth="yes"/>
      <point x="529" y="327"/>
      <point x="422" y="423"/>
    </contour>
    <contour>
      <point x="450" y="197" type="curve" smooth="yes"/>
      <point x="444" y="130"/>
      <point x="391" y="76"/>
      <point x="322" y="62" type="curve" smooth="yes"/>
      <point x="311" y="60"/>
      <point x="300" y="59"/>
      <point x="289" y="59" type="curve" smooth="yes"/>
      <point x="213" y="59"/>
      <point x="150" y="107"/>
      <point x="132" y="173" type="curve" smooth="yes"/>
      <point x="129" y="184"/>
      <point x="127" y="197"/>
      <point x="127" y="209" type="curve" smooth="yes"/>
      <point x="127" y="249"/>
      <point x="144" y="285"/>
      <point x="170" y="311" type="curve" smooth="yes"/>
      <point x="200" y="341"/>
      <point x="242" y="360"/>
      <point x="289" y="360" type="curve" smooth="yes"/>
      <point x="378" y="360"/>
      <point x="450" y="292"/>
      <point x="450" y="209" type="curve" smooth="yes"/>
      <point x="450" y="205"/>
      <point x="450" y="201"/>
    </contour>
  </outline>
</glyph>
<glyph name="A" format="1">
  <advance width="813"/>
  <unicode hex="0041"/>
  <outline>
    <contour>
      <point x="793" y="0" type="line"/>
      <point x="751" y="67" type="line"/>
      <point x="679" y="747" type="line"/>
      <point x="110" y="67" type="line"/>
      <point x="20" y="0" type="line"/>
      <point x="218" y="0" type="line"/>
      <point x="190" y="44" type="line"/>
      <point x="429" y="356" type="line"/>
      <point x="644" y="356" type="line"/>
      <point x="655" y="44" type="line"/>
      <point x="595" y="0" type="line"/>
    </contour>
    <contour>
      <point x="462" y="399" type="line"/>
      <point x="634" y="624" type="line"/>
      <point x="642" y="399" type="line"/>
    </contour>
  </outline>
</glyph>
<glyph name="B" format="1">
  <advance width="656"/>
  <unicode hex="0042"/>
  <outline>
    <contour>
      <point x="417" y="671" type="line"/>
      <point x="473" y="712" type="line"/>
      <point x="295" y="712" type="line"/>
      <point x="335" y="651" type="line"/>
      <point x="120" y="61" type="line"/>
      <point x="36" y="0" type="line"/>
      <point x="214" y="0" type="line"/>
      <point x="188" y="41" type="line"/>
    </contour>
    <contour>
      <point x="559" y="423" type="curve"/>
      <point x="639" y="458"/>
      <point x="704" y="539"/>
      <point x="704" y="605" type="curve" smooth="yes"/>
      <point x="704" y="667"/>
      <point x="654" y="712"/>
      <point x="577" y="712" type="curve" smooth="yes"/>
      <point x="521" y="712"/>
      <point x="462" y="688"/>
      <point x="417" y="651" type="curve"/>
      <point x="449" y="667"/>
      <point x="484" y="677"/>
      <point x="518" y="677" type="curve" smooth="yes"/>
      <point x="588" y="677"/>
      <point x="632" y="638"/>
      <point x="632" y="585" type="curve" smooth="yes"/>
      <point x="632" y="509"/>
      <point x="531" y="420"/>
      <point x="433" y="415" type="curve"/>
      <point x="430" y="406" type="line"/>
      <point x="428" y="402" type="line"/>
      <point x="425" y="394" type="line"/>
      <point x="446" y="399"/>
      <point x="467" y="402"/>
      <point x="487" y="402" type="curve" smooth="yes"/>
      <point x="581" y="402"/>
      <point x="641" y="349"/>
      <point x="641" y="276" type="curve" smooth="yes"/>
      <point x="641" y="169"/>
      <point x="495" y="43"/>
      <point x="357" y="43" type="curve" smooth="yes"/>
      <point x="300" y="43"/>
      <point x="256" y="63"/>
      <point x="229" y="94" type="curve"/>
      <point x="254" y="42"/>
      <point x="313" y="8"/>
      <point x="394" y="8" type="curve" smooth="yes"/>
      <point x="553" y="8"/>
      <point x="723" y="154"/>
      <point x="723" y="278" type="curve" smooth="yes"/>
      <point x="723" y="359"/>
      <point x="659" y="418"/>
    </contour>
  </outline>
</glyph>
<glyph name="C" format="1">
  <advance width="757"/>
  <unicode hex="0043"/>
  <outline>
    <contour>
      <point x="212" y="445"/>
      <point x="453" y="674"/>
      <point x="660" y="674" type="curve" smooth="yes"/>
      <point x="794" y="674"/>
      <point x="872" y="578"/>
      <point x="884" y="473" type="curve"/>
      <point x="943" y="663" type="line"/>
      <point x="879" y="663" type="line"/>
      <point x="830" y="703"/>
      <point x="762" y="727"/>
      <point x="680" y="727" type="curve" smooth="yes"/>
      <point x="417" y="727"/>
      <point x="127" y="456"/>
      <point x="127" y="236" type="curve" smooth="yes"/>
      <point x="127" y="90"/>
      <point x="236" y="-15"/>
      <point x="410" y="-15" type="curve" smooth="yes"/>
      <point x="492" y="-15"/>
      <point x="577" y="9"/>
      <point x="656" y="49" type="curve"/>
      <point x="720" y="49" type="line"/>
      <point x="799" y="239" type="line"/>
      <point x="716" y="140"/>
      <point x="568" y="53"/>
      <point x="434" y="53" type="curve" smooth="yes"/>
      <point x="296" y="53"/>
      <point x="212" y="144"/>
      <point x="212" y="261" type="curve" smooth="yes"/>
    </contour>
  </outline>
</glyph>
<glyph name="D" format="1">
  <advance width="833"/>
  <unicode hex="0044"/>
  <outline>
    <contour>
      <point x="432" y="671" type="line"/>
      <point x="488" y="712" type="line"/>
      <point x="310" y="712" type="line"/>
      <point x="349" y="651" type="line"/>
      <point x="134" y="61" type="line"/>
      <point x="51" y="0" type="line"/>
      <point x="229" y="0" type="line"/>
      <point x="203" y="41" type="line"/>
    </contour>
    <contour>
      <point x="873" y="280"/>
      <point x="631" y="41"/>
      <point x="415" y="41" type="curve" smooth="yes"/>
      <point x="333" y="41"/>
      <point x="253" y="61"/>
      <point x="222" y="94" type="curve"/>
      <point x="255" y="34"/>
      <point x="332" y="-15"/>
      <point x="441" y="-15" type="curve" smooth="yes"/>
      <point x="678" y="-15"/>
      <point x="958" y="266"/>
      <point x="958" y="491" type="curve" smooth="yes"/>
      <point x="958" y="633"/>
      <point x="861" y="727"/>
      <point x="711" y="727" type="curve" smooth="yes"/>
      <point x="602" y="727"/>
      <point x="489" y="678"/>
      <point x="413" y="618" type="curve"/>
      <point x="471" y="653"/>
      <point x="566" y="681"/>
      <point x="648" y="681" type="curve" smooth="yes"/>
      <point x="785" y="681"/>
      <point x="873" y="597"/>
      <point x="873" y="472" type="curve" smooth="yes"/>
    </contour>
  </outline>
</glyph>
<glyph name="E" format="1">
  <advance width="629"/>
  <unicode hex="0045"/>
  <outline>
    <contour>
      <point x="211" y="66" type="line"/>
      <point x="317" y="356" type="line"/>
      <point x="420" y="356" type="line"/>
      <point x="438" y="327" type="line"/>
      <point x="475" y="429" type="line"/>
      <point x="436" y="400" type="line"/>
      <point x="333" y="400" type="line"/>
      <point x="422" y="646" type="line"/>
      <point x="667" y="646" type="line"/>
      <point x="703" y="589" type="line"/>
      <point x="738" y="712" type="line"/>
      <point x="309" y="712" type="line"/>
      <point x="348" y="651" type="line"/>
      <point x="133" y="61" type="line"/>
      <point x="50" y="0" type="line"/>
      <point x="576" y="0" type="line"/>
      <point x="632" y="127" type="line"/>
      <point x="549" y="66" type="line"/>
    </contour>
  </outline>
</glyph>
<glyph name="F" format="1">
  <advance width="520"/>
  <unicode hex="0046"/>
  <outline>
    <contour>
      <point x="447" y="712" type="line"/>
      <point x="371" y="712" type="line"/>
      <point x="310" y="712" type="line"/>
      <point x="349" y="651" type="line"/>
      <point x="134" y="61" type="line"/>
      <point x="51" y="0" type="line"/>
      <point x="112" y="0" type="line"/>
      <point x="188" y="0" type="line"/>
      <point x="249" y="0" type="line"/>
      <point x="210" y="61" type="line"/>
      <point x="318" y="356" type="line"/>
      <point x="421" y="356" type="line"/>
      <point x="439" y="327" type="line"/>
      <point x="450" y="356" type="line"/>
      <point x="454" y="368" type="line"/>
      <point x="461" y="388" type="line"/>
      <point x="466" y="400" type="line"/>
      <point x="476" y="429" type="line"/>
      <point x="437" y="400" type="line"/>
      <point x="334" y="400" type="line"/>
      <point x="423" y="646" type="line"/>
      <point x="668" y="646" type="line"/>
      <point x="704" y="589" type="line"/>
      <point x="739" y="712" type="line"/>
      <point x="508" y="712" type="line"/>
    </contour>
  </outline>
</glyph>
<glyph name="G" format="1">
  <advance width="833"/>
  <unicode hex="0047"/>
  <outline>
    <contour>
      <point x="739" y="282" type="line"/>
      <point x="778" y="221" type="line"/>
      <point x="765" y="184" type="line"/>
      <point x="682" y="118"/>
      <point x="568" y="55"/>
      <point x="465" y="55" type="curve" smooth="yes"/>
      <point x="323" y="55"/>
      <point x="237" y="149"/>
      <point x="237" y="267" type="curve" smooth="yes"/>
      <point x="237" y="445"/>
      <point x="473" y="665"/>
      <point x="687" y="665" type="curve" smooth="yes"/>
      <point x="821" y="665"/>
      <point x="902" y="572"/>
      <point x="914" y="469" type="curve"/>
      <point x="970" y="654" type="line"/>
      <point x="906" y="654" type="line"/>
      <point x="858" y="694"/>
      <point x="789" y="718"/>
      <point x="706" y="718" type="curve" smooth="yes"/>
      <point x="444" y="718"/>
      <point x="158" y="455"/>
      <point x="158" y="239" type="curve" smooth="yes"/>
      <point x="158" y="95"/>
      <point x="268" y="-8"/>
      <point x="442" y="-8" type="curve" smooth="yes"/>
      <point x="539" y="-8"/>
      <point x="639" y="24"/>
      <point x="727" y="77" type="curve"/>
      <point x="793" y="77" type="line"/>
      <point x="847" y="226" type="line"/>
      <point x="876" y="282" type="line"/>
    </contour>
  </outline>
</glyph>
<glyph name="H" format="1">
  <advance width="805"/>
  <unicode hex="0048"/>
  <outline>
    <contour>
      <point x="1014" y="712" type="line"/>
      <point x="816" y="712" type="line"/>
      <point x="855" y="651" type="line"/>
      <point x="764" y="400" type="line"/>
      <point x="333" y="400" type="line"/>
      <point x="424" y="651" type="line"/>
      <point x="507" y="712" type="line"/>
      <point x="309" y="712" type="line"/>
      <point x="348" y="651" type="line"/>
      <point x="133" y="61" type="line"/>
      <point x="50" y="0" type="line"/>
      <point x="248" y="0" type="line"/>
      <point x="209" y="61" type="line"/>
      <point x="317" y="356" type="line"/>
      <point x="748" y="356" type="line"/>
      <point x="640" y="61" type="line"/>
      <point x="557" y="0" type="line"/>
      <point x="755" y="0" type="line"/>
      <point x="716" y="61" type="line"/>
      <point x="931" y="651" type="line"/>
    </contour>
  </outline>
</glyph>
<glyph name="I" format="1">
  <advance width="298"/>
  <unicode hex="0049"/>
  <outline>
    <contour>
      <point x="424" y="651" type="line"/>
      <point x="507" y="712" type="line"/>
      <point x="309" y="712" type="line"/>
      <point x="348" y="651" type="line"/>
      <point x="133" y="61" type="line"/>
      <point x="50" y="0" type="line"/>
      <point x="248" y="0" type="line"/>
      <point x="209" y="61" type="line"/>
    </contour>
  </outline>
</glyph>
<glyph name="J" format="1">
  <advance width="673"/>
  <unicode hex="004A"/>
  <outline>
    <contour>
      <point x="751" y="712" type="line"/>
      <point x="690" y="712" type="line"/>
      <point x="729" y="651" type="line"/>
      <point x="570" y="214" type="line"/>
      <point x="540" y="132"/>
      <point x="437" y="66"/>
      <point x="339" y="66" type="curve" smooth="yes"/>
      <point x="259" y="66"/>
      <point x="207" y="110"/>
      <point x="207" y="171" type="curve" smooth="yes"/>
      <point x="207" y="187"/>
      <point x="207" y="208"/>
      <point x="218" y="221" type="curve" smooth="yes"/>
      <point x="219" y="222"/>
      <point x="220" y="224"/>
      <point x="220" y="225" type="curve"/>
      <point x="221" y="228" type="line"/>
      <point x="156" y="147" type="line"/>
      <point x="63" y="34" type="line"/>
      <point x="167" y="91" type="line"/>
      <point x="167" y="91" type="line"/>
      <point x="190" y="36"/>
      <point x="248" y="1"/>
      <point x="329" y="1" type="curve" smooth="yes"/>
      <point x="386" y="1"/>
      <point x="446" y="19"/>
      <point x="498" y="49" type="curve" smooth="yes"/>
      <point x="503" y="52"/>
      <point x="509" y="55"/>
      <point x="513" y="59" type="curve" smooth="yes"/>
      <point x="569" y="94"/>
      <point x="615" y="144"/>
      <point x="640" y="199" type="curve"/>
      <point x="805" y="651" type="line"/>
      <point x="888" y="712" type="line"/>
      <point x="827" y="712" type="line"/>
    </contour>
  </outline>
</glyph>
<glyph name="K" format="1">
  <advance width="692"/>
  <unicode hex="004B"/>
  <outline>
    <contour>
      <point x="333" y="386" type="line"/>
      <point x="572" y="0" type="line"/>
      <point x="696" y="0" type="line"/>
      <point x="416" y="393" type="line"/>
      <point x="658" y="596" type="line"/>
      <point x="816" y="712" type="line"/>
      <point x="679" y="712" type="line"/>
    </contour>
    <contour>
      <point x="425" y="651" type="line"/>
      <point x="508" y="712" type="line"/>
      <point x="310" y="712" type="line"/>
      <point x="349" y="651" type="line"/>
      <point x="134" y="61" type="line"/>
      <point x="51" y="0" type="line"/>
      <point x="249" y="0" type="line"/>
      <point x="210" y="61" type="line"/>
    </contour>
  </outline>
</glyph>
<glyph name="L" format="1">
  <advance width="653"/>
  <unicode hex="004C"/>
  <outline>
    <contour>
      <point x="212" y="66" type="line"/>
      <point x="425" y="651" type="line"/>
      <point x="508" y="712" type="line"/>
      <point x="310" y="712" type="line"/>
      <point x="349" y="651" type="line"/>
      <point x="134" y="61" type="line"/>
      <point x="51" y="0" type="line"/>
      <point x="577" y="0" type="line"/>
      <point x="633" y="127" type="line"/>
      <point x="550" y="66" type="line"/>
    </contour>
  </outline>
</glyph>
<glyph name="M" format="1">
  <advance width="985"/>
  <unicode hex="004D"/>
  <outline>
    <contour>
      <point x="1044" y="664" type="line"/>
      <point x="1118" y="712" type="line"/>
      <point x="1011" y="712" type="line"/>
      <point x="560" y="193" type="line"/>
      <point x="487" y="712" type="line"/>
      <point x="380" y="712" type="line"/>
      <point x="420" y="664" type="line"/>
      <point x="126" y="55" type="line"/>
      <point x="51" y="0" type="line"/>
      <point x="249" y="0" type="line"/>
      <point x="213" y="57" type="line"/>
      <point x="437" y="575" type="line"/>
      <point x="496" y="16" type="line"/>
      <point x="961" y="575" type="line"/>
      <point x="809" y="57" type="line"/>
      <point x="731" y="0" type="line"/>
      <point x="929" y="0" type="line"/>
      <point x="893" y="55" type="line"/>
    </contour>
  </outline>
</glyph>
<glyph name="N" format="1">
  <advance width="749"/>
  <unicode hex="004E"/>
  <outline>
    <contour>
      <point x="964" y="712" type="line"/>
      <point x="902" y="712" type="line"/>
      <point x="827" y="712" type="line"/>
      <point x="765" y="712" type="line"/>
      <point x="805" y="650" type="line"/>
      <point x="612" y="122" type="line"/>
      <point x="368" y="712" type="line"/>
      <point x="256" y="712" type="line"/>
      <point x="315" y="614" type="line"/>
      <point x="113" y="59" type="line"/>
      <point x="30" y="-3" type="line"/>
      <point x="91" y="-3" type="line"/>
      <point x="167" y="-3" type="line"/>
      <point x="229" y="-3" type="line"/>
      <point x="189" y="59" type="line"/>
      <point x="360" y="527" type="line"/>
      <point x="589" y="-3" type="line"/>
      <point x="704" y="-3" type="line"/>
      <point x="664" y="59" type="line"/>
      <point x="880" y="650" type="line"/>
    </contour>
  </outline>
</glyph>
<glyph name="O" format="1">
  <advance width="848"/>
  <unicode hex="004F"/>
  <outline>
    <contour>
      <point x="689" y="727" type="curve" smooth="yes"/>
      <point x="426" y="727"/>
      <point x="137" y="456"/>
      <point x="137" y="235" type="curve" smooth="yes"/>
      <point x="137" y="89"/>
      <point x="245" y="-15"/>
      <point x="419" y="-15" type="curve" smooth="yes"/>
      <point x="682" y="-15"/>
      <point x="970" y="254"/>
      <point x="970" y="476" type="curve" smooth="yes"/>
      <point x="970" y="622"/>
      <point x="862" y="727"/>
    </contour>
    <contour>
      <point x="444" y="55" type="curve" smooth="yes"/>
      <point x="306" y="55"/>
      <point x="223" y="148"/>
      <point x="223" y="265" type="curve" smooth="yes"/>
      <point x="223" y="448"/>
      <point x="460" y="674"/>
      <point x="669" y="674" type="curve" smooth="yes"/>
      <point x="806" y="674"/>
      <point x="889" y="580"/>
      <point x="889" y="461" type="curve" smooth="yes"/>
      <point x="889" y="282"/>
      <point x="656" y="55"/>
    </contour>
  </outline>
</glyph>
<glyph name="P" format="1">
  <advance width="608"/>
  <unicode hex="0050"/>
  <outline>
    <contour>
      <point x="344" y="432" type="line"/>
      <point x="344" y="442" type="line"/>
      <point x="343" y="437"/>
      <point x="343" y="432"/>
      <point x="343" y="427" type="curve" smooth="yes"/>
      <point x="343" y="352"/>
      <point x="406" y="303"/>
      <point x="484" y="303" type="curve" smooth="yes"/>
      <point x="628" y="303"/>
      <point x="786" y="462"/>
      <point x="786" y="588" type="curve" smooth="yes"/>
      <point x="786" y="669"/>
      <point x="731" y="727"/>
      <point x="639" y="727" type="curve" smooth="yes"/>
      <point x="556" y="727"/>
      <point x="448" y="671"/>
      <point x="397" y="588" type="curve"/>
      <point x="405" y="598" type="line"/>
      <point x="431" y="671" type="line"/>
      <point x="487" y="712" type="line"/>
      <point x="309" y="712" type="line"/>
      <point x="349" y="651" type="line"/>
      <point x="134" y="61" type="line"/>
      <point x="50" y="0" type="line"/>
      <point x="299" y="0" type="line"/>
      <point x="209" y="61" type="line"/>
    </contour>
    <contour>
      <point x="354" y="560"/>
      <point x="482" y="679"/>
      <point x="600" y="679" type="curve" smooth="yes"/>
      <point x="667" y="679"/>
      <point x="705" y="637"/>
      <point x="705" y="578" type="curve" smooth="yes"/>
      <point x="705" y="480"/>
      <point x="592" y="351"/>
      <point x="481" y="351" type="curve" smooth="yes"/>
      <point x="403" y="351"/>
      <point x="354" y="397"/>
      <point x="354" y="462" type="curve" smooth="yes"/>
    </contour>
  </outline>
</glyph>
<glyph name="Q" format="1">
  <advance width="892"/>
  <unicode hex="0051"/>
  <outline>
    <contour>
      <point x="828" y="108"/>
      <point x="990" y="307"/>
      <point x="990" y="470" type="curve" smooth="yes"/>
      <point x="990" y="614"/>
      <point x="880" y="717"/>
      <point x="706" y="717" type="curve" smooth="yes"/>
      <point x="444" y="717"/>
      <point x="158" y="456"/>
      <point x="158" y="239" type="curve" smooth="yes"/>
      <point x="158" y="95"/>
      <point x="268" y="-9"/>
      <point x="442" y="-9" type="curve" smooth="yes"/>
      <point x="469" y="-9"/>
      <point x="496" y="-7"/>
      <point x="524" y="-2" type="curve"/>
      <point x="554" y="-80" type="line"/>
      <point x="756" y="-80" type="line"/>
      <point x="636" y="31" type="line"/>
    </contour>
    <contour>
      <point x="465" y="55" type="curve" smooth="yes"/>
      <point x="323" y="55"/>
      <point x="237" y="149"/>
      <point x="237" y="266" type="curve" smooth="yes"/>
      <point x="237" y="443"/>
      <point x="473" y="664"/>
      <point x="687" y="664" type="curve" smooth="yes"/>
      <point x="829" y="664"/>
      <point x="915" y="570"/>
      <point x="915" y="452" type="curve" smooth="yes"/>
      <point x="915" y="309"/>
      <point x="764" y="136"/>
      <point x="591" y="77" type="curve"/>
      <point x="568" y="103"/>
      <point x="520" y="150"/>
      <point x="468" y="150" type="curve"/>
      <point x="503" y="57" type="line"/>
      <point x="490" y="55"/>
      <point x="477" y="55"/>
    </contour>
  </outline>
</glyph>
<glyph name="R" format="1">
  <advance width="670.0"/>
  <unicode hex="0052"/>
  <outline>
    <contour>
      <point x="561" y="0" type="curve"/>
      <point x="685" y="0" type="line"/>
      <point x="484" y="281" type="line"/>
      <point x="352" y="456" type="line"/>
      <point x="376" y="421" type="line"/>
      <point x="416" y="380"/>
      <point x="443" y="357"/>
      <point x="514" y="357" type="curve" smooth="yes"/>
      <point x="630" y="357"/>
      <point x="772" y="490"/>
      <point x="772" y="599" type="curve" smooth="yes"/>
      <point x="772" y="676"/>
      <point x="715" y="727"/>
      <point x="636" y="727" type="curve" smooth="yes"/>
      <point x="550" y="727"/>
      <point x="448" y="670"/>
      <point x="397" y="588" type="curve"/>
      <point x="405" y="598" type="line"/>
      <point x="431" y="671" type="line"/>
      <point x="487" y="712" type="line"/>
      <point x="309" y="712" type="line"/>
      <point x="349" y="651" type="line"/>
      <point x="134" y="61" type="line"/>
      <point x="50" y="0" type="line"/>
      <point x="249" y="0" type="line"/>
      <point x="209" y="61" type="line"/>
      <point x="355" y="461" type="line"/>
      <point x="324" y="397" type="line"/>
      <point x="324" y="397"/>
      <point x="561" y="0"/>
    </contour>
    <contour>
      <point x="363" y="577"/>
      <point x="480" y="679"/>
      <point x="590" y="679" type="curve" smooth="yes"/>
      <point x="651" y="679"/>
      <point x="690" y="644"/>
      <point x="690" y="588" type="curve" smooth="yes"/>
      <point x="690" y="500"/>
      <point x="592" y="391"/>
      <point x="483" y="391" type="curve" smooth="yes"/>
      <point x="410" y="391"/>
      <point x="363" y="433"/>
      <point x="363" y="491" type="curve" smooth="yes"/>
    </contour>
  </outline>
</glyph>
<glyph name="S" format="1">
  <advance width="549"/>
  <unicode hex="0053"/>
  <outline>
    <contour>
      <point x="452" y="430" type="curve" smooth="yes"/>
      <point x="378" y="453"/>
      <point x="338" y="486"/>
      <point x="338" y="534" type="curve" smooth="yes"/>
      <point x="338" y="599"/>
      <point x="410" y="666"/>
      <point x="513" y="666" type="curve" smooth="yes"/>
      <point x="582" y="666"/>
      <point x="636" y="637"/>
      <point x="641" y="584" type="curve"/>
      <point x="685" y="707" type="line"/>
      <point x="614" y="707" type="line"/>
      <point x="659" y="694" type="line"/>
      <point x="633" y="715"/>
      <point x="598" y="727"/>
      <point x="542" y="727" type="curve" smooth="yes"/>
      <point x="419" y="727"/>
      <point x="276" y="591"/>
      <point x="276" y="488" type="curve" smooth="yes"/>
      <point x="276" y="424"/>
      <point x="325" y="387"/>
      <point x="423" y="355" type="curve" smooth="yes"/>
      <point x="491" y="333"/>
      <point x="548" y="299"/>
      <point x="548" y="238" type="curve" smooth="yes"/>
      <point x="548" y="154"/>
      <point x="425" y="50"/>
      <point x="303" y="50" type="curve" smooth="yes"/>
      <point x="201" y="50"/>
      <point x="158" y="102"/>
      <point x="158" y="173" type="curve" smooth="yes"/>
      <point x="158" y="186"/>
      <point x="160" y="199"/>
      <point x="162" y="212" type="curve"/>
      <point x="4" y="18" type="line"/>
      <point x="126" y="85" type="line"/>
      <point x="96" y="74" type="line"/>
      <point x="124" y="22"/>
      <point x="188" y="-15"/>
      <point x="283" y="-15" type="curve" smooth="yes"/>
      <point x="439" y="-15"/>
      <point x="617" y="165"/>
      <point x="617" y="286" type="curve" smooth="yes"/>
      <point x="617" y="365"/>
      <point x="551" y="399"/>
    </contour>
  </outline>
</glyph>
<glyph name="T" format="1">
  <advance width="644"/>
  <unicode hex="0054"/>
  <outline>
    <contour>
      <point x="300" y="712" type="line"/>
      <point x="245" y="589" type="line"/>
      <point x="323" y="646" type="line"/>
      <point x="510" y="646" type="line"/>
      <point x="297" y="61" type="line"/>
      <point x="214" y="0" type="line"/>
      <point x="412" y="0" type="line"/>
      <point x="373" y="61" type="line"/>
      <point x="586" y="646" type="line"/>
      <point x="773" y="646" type="line"/>
      <point x="809" y="589" type="line"/>
      <point x="844" y="712" type="line"/>
    </contour>
  </outline>
</glyph>
<glyph name="U" format="1">
  <advance width="696"/>
  <unicode hex="0055"/>
  <outline>
    <contour>
      <point x="912" y="712" type="line"/>
      <point x="713" y="712" type="line"/>
      <point x="753" y="651" type="line"/>
      <point x="591" y="205" type="line" smooth="yes"/>
      <point x="558" y="116"/>
      <point x="460" y="49"/>
      <point x="370" y="49" type="curve" smooth="yes"/>
      <point x="298" y="49"/>
      <point x="253" y="91"/>
      <point x="253" y="152" type="curve" smooth="yes"/>
      <point x="253" y="169"/>
      <point x="256" y="186"/>
      <point x="263" y="205" type="curve" smooth="yes"/>
      <point x="425" y="651" type="line"/>
      <point x="508" y="712" type="line"/>
      <point x="310" y="712" type="line"/>
      <point x="349" y="651" type="line"/>
      <point x="187" y="205" type="line" smooth="yes"/>
      <point x="177" y="180"/>
      <point x="173" y="156"/>
      <point x="173" y="134" type="curve" smooth="yes"/>
      <point x="173" y="46"/>
      <point x="240" y="-15"/>
      <point x="347" y="-15" type="curve" smooth="yes"/>
      <point x="479" y="-15"/>
      <point x="621" y="81"/>
      <point x="667" y="205" type="curve" smooth="yes"/>
      <point x="829" y="651" type="line"/>
    </contour>
  </outline>
</glyph>
<glyph name="V" format="1">
  <advance width="762"/>
  <unicode hex="0056"/>
  <outline>
    <contour>
      <point x="793" y="712" type="line"/>
      <point x="820" y="668" type="line"/>
      <point x="429" y="133" type="line"/>
      <point x="428" y="668" type="line"/>
      <point x="487" y="712" type="line"/>
      <point x="279" y="712" type="line"/>
      <point x="345" y="608" type="line"/>
      <point x="375" y="-17" type="line"/>
      <point x="859" y="608" type="line"/>
      <point x="1001" y="712" type="line"/>
    </contour>
  </outline>
</glyph>
<glyph name="W" format="1">
  <advance width="1247"/>
  <unicode hex="0057"/>
  <outline>
    <contour>
      <point x="1281" y="712" type="line"/>
      <point x="1309" y="668" type="line"/>
      <point x="919" y="163" type="line"/>
      <point x="901" y="729" type="line"/>
      <point x="471" y="163" type="line"/>
      <point x="449" y="668" type="line"/>
      <point x="508" y="712" type="line"/>
      <point x="310" y="712" type="line"/>
      <point x="376" y="608" type="line"/>
      <point x="406" y="-17" type="line"/>
      <point x="828" y="527" type="line"/>
      <point x="854" y="-17" type="line"/>
      <point x="1337" y="608" type="line"/>
      <point x="1480" y="712" type="line"/>
    </contour>
  </outline>
</glyph>
<glyph name="X" format="1">
  <advance width="649"/>
  <unicode hex="0058"/>
  <outline>
    <contour>
      <point x="505" y="387" type="line"/>
      <point x="780" y="666" type="line"/>
      <point x="843" y="712" type="line"/>
      <point x="826" y="712" type="line"/>
      <point x="781" y="712" type="line"/>
      <point x="751" y="712" type="line"/>
      <point x="750" y="712" type="line"/>
      <point x="689" y="712" type="line"/>
      <point x="714" y="675" type="line"/>
      <point x="489" y="448" type="line"/>
      <point x="430" y="674" type="line"/>
      <point x="481" y="712" type="line"/>
      <point x="420" y="712" type="line"/>
      <point x="420" y="712" type="line"/>
      <point x="389" y="712" type="line"/>
      <point x="345" y="712" type="line"/>
      <point x="328" y="712" type="line"/>
      <point x="356" y="666" type="line"/>
      <point x="429" y="387" type="line"/>
      <point x="100" y="54" type="line"/>
      <point x="26" y="0" type="line"/>
      <point x="47" y="0" type="line"/>
      <point x="88" y="0" type="line"/>
      <point x="120" y="0" type="line"/>
      <point x="120" y="0" type="line"/>
      <point x="181" y="0" type="line"/>
      <point x="158" y="36" type="line"/>
      <point x="445" y="327" type="line"/>
      <point x="521" y="38" type="line"/>
      <point x="469" y="0" type="line"/>
      <point x="530" y="0" type="line"/>
      <point x="530" y="0" type="line"/>
      <point x="530" y="0" type="line"/>
      <point x="565" y="0" type="line"/>
      <point x="606" y="0" type="line"/>
      <point x="626" y="0" type="line"/>
      <point x="592" y="54" type="line"/>
    </contour>
  </outline>
</glyph>
<glyph name="Y" format="1">
  <advance width="708"/>
  <unicode hex="0059"/>
  <outline>
    <contour>
      <point x="846" y="712" type="line"/>
      <point x="815" y="712" type="line"/>
      <point x="815" y="712" type="line"/>
      <point x="754" y="712" type="line"/>
      <point x="778" y="675" type="line"/>
      <point x="512" y="444" type="line"/>
      <point x="412" y="674" type="line"/>
      <point x="463" y="712" type="line"/>
      <point x="402" y="712" type="line"/>
      <point x="402" y="712" type="line"/>
      <point x="371" y="712" type="line"/>
      <point x="327" y="712" type="line"/>
      <point x="310" y="712" type="line"/>
      <point x="338" y="666" type="line"/>
      <point x="451" y="383" type="line"/>
      <point x="451" y="383" type="line"/>
      <point x="409" y="266" type="line"/>
      <point x="334" y="61" type="line"/>
      <point x="251" y="0" type="line"/>
      <point x="312" y="0" type="line"/>
      <point x="387" y="0" type="line"/>
      <point x="449" y="0" type="line"/>
      <point x="409" y="61" type="line"/>
      <point x="484" y="266" type="line"/>
      <point x="526" y="383" type="line"/>
      <point x="526" y="383" type="line"/>
      <point x="845" y="666" type="line"/>
      <point x="907" y="712" type="line"/>
      <point x="890" y="712" type="line"/>
    </contour>
  </outline>
</glyph>
<glyph name="Z" format="1">
  <advance width="601"/>
  <unicode hex="005A"/>
  <outline>
    <contour>
      <point x="754" y="712" type="line"/>
      <point x="754" y="711" type="line"/>
      <point x="754" y="712" type="line"/>
      <point x="612" y="712" type="line"/>
      <point x="551" y="712" type="line"/>
      <point x="320" y="712" type="line"/>
      <point x="265" y="589" type="line"/>
      <point x="343" y="646" type="line"/>
      <point x="689" y="646" type="line"/>
      <point x="51" y="0" type="line"/>
      <point x="126" y="0" type="line"/>
      <point x="515" y="0" type="line"/>
      <point x="572" y="127" type="line"/>
      <point x="488" y="66" type="line"/>
      <point x="192" y="66" type="line"/>
      <point x="830" y="712" type="line"/>
    </contour>
  </outline>
</glyph>
<glyph name="underscore" format="1">
  <advance width="575"/>
  <unicode hex="005F"/>
  <outline>
    <contour>
      <point x="502" y="-94" type="line"/>
      <point x="71" y="-94" type="line"/>
      <point x="71" y="-50" type="line"/>
      <point x="502" y="-50" type="line"/>
    </contour>
  </outline>
</glyph>
<glyph name="a" format="1">
  <advance width="524"/>
  <unicode hex="0061"/>
  <outline>
    <contour>
      <point x="102" y="145"/>
      <point x="85" y="102"/>
      <point x="85" y="71" type="curve" smooth="yes"/>
      <point x="85" y="18"/>
      <point x="122" y="-15"/>
      <point x="181" y="-15" type="curve" smooth="yes"/>
      <point x="303" y="-15"/>
      <point x="349" y="28"/>
      <point x="238" y="28" type="curve" smooth="yes"/>
      <point x="195" y="28"/>
      <point x="161" y="53"/>
      <point x="161" y="95" type="curve" smooth="yes"/>
      <point x="161" y="109"/>
      <point x="165" y="124"/>
      <point x="173" y="141" type="curve"/>
      <point x="265" y="162"/>
      <point x="367" y="190"/>
      <point x="453" y="273" type="curve"/>
      <point x="363" y="204"/>
      <point x="207" y="172"/>
      <point x="124" y="171" type="curve"/>
    </contour>
    <contour>
      <point x="414" y="425" type="curve" smooth="yes"/>
      <point x="456" y="425"/>
      <point x="482" y="409"/>
      <point x="482" y="371" type="curve" smooth="yes"/>
      <point x="482" y="358"/>
      <point x="479" y="343"/>
      <point x="472" y="324" type="curve" smooth="yes"/>
      <point x="380" y="72" type="line" smooth="yes"/>
      <point x="377" y="62"/>
      <point x="375" y="53"/>
      <point x="375" y="45" type="curve" smooth="yes"/>
      <point x="375" y="17"/>
      <point x="395" y="0"/>
      <point x="425" y="0" type="curve" smooth="yes"/>
      <point x="457" y="0"/>
      <point x="506" y="29"/>
      <point x="532" y="49" type="curve"/>
      <point x="513" y="41"/>
      <point x="495" y="38"/>
      <point x="478" y="38" type="curve" smooth="yes"/>
      <point x="459" y="38"/>
      <point x="448" y="46"/>
      <point x="448" y="62" type="curve" smooth="yes"/>
      <point x="448" y="69"/>
      <point x="450" y="76"/>
      <point x="453" y="85" type="curve" smooth="yes"/>
      <point x="542" y="330" type="line" smooth="yes"/>
      <point x="550" y="351"/>
      <point x="553" y="369"/>
      <point x="553" y="385" type="curve" smooth="yes"/>
      <point x="553" y="440"/>
      <point x="511" y="465"/>
      <point x="444" y="465" type="curve" smooth="yes"/>
      <point x="386" y="465"/>
      <point x="307" y="440"/>
      <point x="256" y="401" type="curve"/>
      <point x="305" y="417" type="line"/>
      <point x="233" y="417" type="line"/>
      <point x="183" y="281" type="line"/>
      <point x="256" y="363"/>
      <point x="343" y="425"/>
    </contour>
  </outline>
</glyph>
<glyph name="b" format="1">
  <advance width="593"/>
  <unicode hex="0062"/>
  <outline>
    <contour>
      <point x="395" y="711" type="line"/>
      <point x="468" y="762" type="line"/>
      <point x="289" y="762" type="line"/>
      <point x="325" y="707" type="line"/>
      <point x="88" y="55" type="line"/>
      <point x="12" y="0" type="line"/>
      <point x="173" y="0" type="line"/>
      <point x="149" y="37" type="line"/>
    </contour>
    <contour>
      <point x="464" y="-15"/>
      <point x="641" y="164"/>
      <point x="641" y="317" type="curve" smooth="yes"/>
      <point x="641" y="404"/>
      <point x="585" y="465"/>
      <point x="492" y="465" type="curve" smooth="yes"/>
      <point x="419" y="465"/>
      <point x="344" y="434"/>
      <point x="288" y="387" type="curve"/>
      <point x="332" y="415"/>
      <point x="385" y="433"/>
      <point x="436" y="433" type="curve" smooth="yes"/>
      <point x="514" y="433"/>
      <point x="560" y="382"/>
      <point x="560" y="307" type="curve" smooth="yes"/>
      <point x="560" y="183"/>
      <point x="414" y="17"/>
      <point x="284" y="17" type="curve" smooth="yes"/>
      <point x="233" y="17"/>
      <point x="194" y="35"/>
      <point x="170" y="63" type="curve"/>
      <point x="192" y="16"/>
      <point x="245" y="-15"/>
      <point x="318" y="-15" type="curve" smooth="yes"/>
    </contour>
  </outline>
</glyph>
<glyph name="c" format="1">
  <advance width="506"/>
  <unicode hex="0063"/>
  <outline>
    <contour>
      <point x="170" y="276"/>
      <point x="310" y="407"/>
      <point x="439" y="407" type="curve" smooth="yes"/>
      <point x="516" y="407"/>
      <point x="573" y="362"/>
      <point x="589" y="302" type="curve"/>
      <point x="632" y="421" type="line"/>
      <point x="595" y="421" type="line"/>
      <point x="564" y="454"/>
      <point x="516" y="465"/>
      <point x="460" y="465" type="curve" smooth="yes"/>
      <point x="290" y="465"/>
      <point x="98" y="294"/>
      <point x="98" y="143" type="curve" smooth="yes"/>
      <point x="98" y="46"/>
      <point x="173" y="-15"/>
      <point x="286" y="-15" type="curve" smooth="yes"/>
      <point x="342" y="-15"/>
      <point x="399" y="1"/>
      <point x="453" y="29" type="curve"/>
      <point x="490" y="29" type="line"/>
      <point x="533" y="148" type="line"/>
      <point x="475" y="93"/>
      <point x="384" y="43"/>
      <point x="307" y="43" type="curve" smooth="yes"/>
      <point x="223" y="43"/>
      <point x="170" y="93"/>
      <point x="170" y="166" type="curve" smooth="yes"/>
    </contour>
  </outline>
</glyph>
<glyph name="d" format="1">
  <advance width="611"/>
  <unicode hex="0064"/>
  <outline>
    <contour>
      <point x="692" y="701" type="line"/>
      <point x="460" y="64" type="line"/>
      <point x="447" y="0" type="line"/>
      <point x="561" y="0" type="line"/>
      <point x="529" y="65" type="line"/>
      <point x="786" y="772" type="line"/>
      <point x="656" y="752" type="line"/>
    </contour>
    <contour>
      <point x="276" y="465"/>
      <point x="108" y="269"/>
      <point x="108" y="132" type="curve" smooth="yes"/>
      <point x="108" y="42"/>
      <point x="164" y="-15"/>
      <point x="256" y="-15" type="curve" smooth="yes"/>
      <point x="329" y="-15"/>
      <point x="404" y="16"/>
      <point x="460" y="63" type="curve"/>
      <point x="416" y="35"/>
      <point x="363" y="17"/>
      <point x="312" y="17" type="curve" smooth="yes"/>
      <point x="234" y="17"/>
      <point x="188" y="69"/>
      <point x="188" y="144" type="curve" smooth="yes"/>
      <point x="188" y="269"/>
      <point x="334" y="433"/>
      <point x="464" y="433" type="curve" smooth="yes"/>
      <point x="515" y="433"/>
      <point x="554" y="415"/>
      <point x="578" y="387" type="curve"/>
      <point x="556" y="434"/>
      <point x="503" y="465"/>
      <point x="430" y="465" type="curve" smooth="yes"/>
    </contour>
  </outline>
</glyph>
<glyph name="e" format="1">
  <advance width="494"/>
  <unicode hex="0065"/>
  <outline>
    <contour>
      <point x="507" y="142" type="line"/>
      <point x="449" y="89"/>
      <point x="358" y="46"/>
      <point x="285" y="46" type="curve" smooth="yes"/>
      <point x="213" y="46"/>
      <point x="156" y="78"/>
      <point x="156" y="151" type="curve" smooth="yes"/>
      <point x="156" y="284"/>
      <point x="296" y="408"/>
      <point x="388" y="408" type="curve" smooth="yes"/>
      <point x="441" y="408"/>
      <point x="488" y="387"/>
      <point x="488" y="336" type="curve" smooth="yes"/>
      <point x="488" y="324"/>
      <point x="485" y="311"/>
      <point x="480" y="296" type="curve"/>
      <point x="541" y="298" type="line"/>
      <point x="546" y="318"/>
      <point x="548" y="335"/>
      <point x="548" y="351" type="curve" smooth="yes"/>
      <point x="548" y="434"/>
      <point x="489" y="465"/>
      <point x="419" y="465" type="curve" smooth="yes"/>
      <point x="298" y="465"/>
      <point x="98" y="278"/>
      <point x="98" y="127" type="curve" smooth="yes"/>
      <point x="98" y="36"/>
      <point x="159" y="-15"/>
      <point x="251" y="-15" type="curve" smooth="yes"/>
      <point x="315" y="-15"/>
      <point x="379" y="7"/>
      <point x="439" y="39" type="curve"/>
      <point x="408" y="33" type="line"/>
      <point x="467" y="33" type="line"/>
    </contour>
    <contour>
      <point x="541" y="298" type="curve"/>
      <point x="532" y="346" type="line"/>
      <point x="407" y="339"/>
      <point x="262" y="269"/>
      <point x="156" y="162" type="curve"/>
      <point x="237" y="237"/>
      <point x="409" y="298"/>
      <point x="535" y="298" type="curve" smooth="yes"/>
      <point x="537" y="298"/>
      <point x="539" y="298"/>
    </contour>
  </outline>
</glyph>
<glyph name="g" format="1">
  <advance width="568"/>
  <unicode hex="0067"/>
  <outline>
    <contour>
      <point x="433" y="465" type="curve" smooth="yes"/>
      <point x="313" y="465"/>
      <point x="184" y="344"/>
      <point x="184" y="245" type="curve" smooth="yes"/>
      <point x="184" y="180"/>
      <point x="234" y="134"/>
      <point x="313" y="134" type="curve" smooth="yes"/>
      <point x="430" y="134"/>
      <point x="563" y="252"/>
      <point x="563" y="352" type="curve" smooth="yes"/>
      <point x="563" y="418"/>
      <point x="512" y="465"/>
    </contour>
    <contour>
      <point x="334" y="191" type="curve" smooth="yes"/>
      <point x="283" y="191"/>
      <point x="253" y="223"/>
      <point x="253" y="266" type="curve" smooth="yes"/>
      <point x="253" y="333"/>
      <point x="338" y="418"/>
      <point x="416" y="418" type="curve" smooth="yes"/>
      <point x="466" y="418"/>
      <point x="497" y="385"/>
      <point x="497" y="342" type="curve" smooth="yes"/>
      <point x="497" y="275"/>
      <point x="412" y="191"/>
    </contour>
    <contour>
      <point x="669" y="362" type="curve"/>
      <point x="707" y="468" type="line"/>
      <point x="660" y="457"/>
      <point x="603" y="409"/>
      <point x="560" y="362" type="curve" smooth="yes"/>
      <point x="588" y="374"/>
      <point x="615" y="384"/>
      <point x="630" y="384" type="curve" smooth="yes"/>
      <point x="644" y="384"/>
      <point x="659" y="375"/>
    </contour>
    <contour>
      <point x="144" y="130"/>
      <point x="175" y="165"/>
      <point x="224" y="185" type="curve"/>
      <point x="161" y="171"/>
      <point x="92" y="116"/>
      <point x="92" y="61" type="curve" smooth="yes"/>
      <point x="92" y="27"/>
      <point x="122" y="0"/>
      <point x="211" y="0" type="curve" smooth="yes"/>
      <point x="381" y="0" type="line" smooth="yes"/>
      <point x="435" y="0"/>
      <point x="456" y="-17"/>
      <point x="456" y="-46" type="curve" smooth="yes"/>
      <point x="456" y="-105"/>
      <point x="388" y="-177"/>
      <point x="289" y="-177" type="curve" smooth="yes"/>
      <point x="144" y="-177"/>
      <point x="59" y="-129"/>
      <point x="59" y="-60" type="curve" smooth="yes"/>
      <point x="59" y="-29"/>
      <point x="78" y="12"/>
      <point x="99" y="35" type="curve"/>
      <point x="48" y="-8"/>
      <point x="3" y="-77"/>
      <point x="3" y="-123" type="curve" smooth="yes"/>
      <point x="3" y="-196"/>
      <point x="78" y="-230"/>
      <point x="200" y="-230" type="curve" smooth="yes"/>
      <point x="355" y="-230"/>
      <point x="529" y="-75"/>
      <point x="529" y="-11" type="curve" smooth="yes"/>
      <point x="529" y="33"/>
      <point x="486" y="61"/>
      <point x="401" y="61" type="curve" smooth="yes"/>
      <point x="231" y="61" type="line" smooth="yes"/>
      <point x="162" y="61"/>
      <point x="144" y="78"/>
      <point x="144" y="97" type="curve" smooth="yes"/>
    </contour>
  </outline>
</glyph>
<glyph name="i" format="1">
  <advance width="259"/>
  <unicode hex="0069"/>
  <outline>
    <contour>
      <point x="416" y="627" type="line"/>
      <point x="373" y="696" type="line"/>
      <point x="279" y="627" type="line"/>
      <point x="323" y="559" type="line"/>
    </contour>
    <contour>
      <point x="331" y="460" type="line"/>
      <point x="195" y="450" type="line"/>
      <point x="236" y="385" type="line"/>
      <point x="116" y="55" type="line"/>
      <point x="40" y="0" type="line"/>
      <point x="219" y="0" type="line"/>
      <point x="184" y="55" type="line"/>
    </contour>
  </outline>
</glyph>
<glyph name="j" format="1">
  <advance width="243"/>
  <unicode hex="006A"/>
  <outline>
    <contour>
      <point x="299" y="394" type="line"/>
      <point x="374" y="449" type="line"/>
      <point x="195" y="449" type="line"/>
      <point x="230" y="394" type="line"/>
      <point x="25" y="-171" type="line"/>
      <point x="-50" y="-226" type="line"/>
      <point x="129" y="-226" type="line"/>
      <point x="94" y="-171" type="line"/>
    </contour>
    <contour>
      <point x="418" y="627" type="line"/>
      <point x="375" y="696" type="line"/>
      <point x="281" y="627" type="line"/>
      <point x="325" y="559" type="line"/>
    </contour>
  </outline>
</glyph>
<glyph name="k" format="1">
  <advance width="513"/>
  <unicode hex="006B"/>
  <outline>
    <contour>
      <point x="269" y="251" type="line"/>
      <point x="414" y="0" type="line"/>
      <point x="526" y="0" type="line"/>
      <point x="360" y="228" type="line"/>
      <point x="328" y="263" type="line"/>
      <point x="441" y="346" type="line"/>
      <point x="596" y="450" type="line"/>
      <point x="473" y="450" type="line"/>
    </contour>
    <contour>
      <point x="454" y="772" type="line"/>
      <point x="324" y="752" type="line"/>
      <point x="360" y="701" type="line"/>
      <point x="125" y="55" type="line"/>
      <point x="50" y="0" type="line"/>
      <point x="228" y="0" type="line"/>
      <point x="193" y="55" type="line"/>
    </contour>
  </outline>
</glyph>
<glyph name="l" format="1">
  <advance width="278"/>
  <unicode hex="006C"/>
  <outline>
    <contour>
      <point x="454" y="772" type="line"/>
      <point x="324" y="752" type="line"/>
      <point x="360" y="701" type="line"/>
      <point x="125" y="55" type="line"/>
      <point x="50" y="0" type="line"/>
      <point x="228" y="0" type="line"/>
      <point x="193" y="55" type="line"/>
    </contour>
  </outline>
</glyph>
<glyph name="m" format="1">
  <advance width="837"/>
  <unicode hex="006D"/>
  <outline>
    <contour>
      <point x="324" y="466" type="line"/>
      <point x="201" y="442" type="line"/>
      <point x="236" y="384" type="line"/>
      <point x="116" y="55" type="line"/>
      <point x="40" y="0" type="line"/>
      <point x="219" y="0" type="line"/>
      <point x="184" y="55" type="line"/>
      <point x="303" y="381" type="line"/>
    </contour>
    <contour>
      <point x="493" y="299" type="curve" smooth="yes"/>
      <point x="404" y="55" type="line"/>
      <point x="328" y="0" type="line"/>
      <point x="507" y="0" type="line"/>
      <point x="472" y="55" type="line"/>
      <point x="563" y="305" type="line" smooth="yes"/>
      <point x="576" y="340"/>
      <point x="582" y="368"/>
      <point x="582" y="391" type="curve" smooth="yes"/>
      <point x="582" y="442"/>
      <point x="553" y="465"/>
      <point x="503" y="465" type="curve" smooth="yes"/>
      <point x="430" y="465"/>
      <point x="358" y="422"/>
      <point x="303" y="381" type="curve"/>
      <point x="353" y="407"/>
      <point x="393" y="423"/>
      <point x="449" y="423" type="curve" smooth="yes"/>
      <point x="451" y="423"/>
      <point x="452" y="423"/>
      <point x="454" y="423" type="curve" smooth="yes"/>
      <point x="489" y="422"/>
      <point x="509" y="406"/>
      <point x="509" y="371" type="curve" smooth="yes"/>
      <point x="509" y="352"/>
      <point x="504" y="329"/>
    </contour>
    <contour>
      <point x="783" y="299" type="curve" smooth="yes"/>
      <point x="694" y="55" type="line"/>
      <point x="618" y="0" type="line"/>
      <point x="797" y="0" type="line"/>
      <point x="762" y="55" type="line"/>
      <point x="853" y="305" type="line" smooth="yes"/>
      <point x="866" y="340"/>
      <point x="872" y="368"/>
      <point x="872" y="391" type="curve" smooth="yes"/>
      <point x="872" y="442"/>
      <point x="843" y="465"/>
      <point x="793" y="465" type="curve" smooth="yes"/>
      <point x="716" y="465"/>
      <point x="640" y="418"/>
      <point x="580" y="374" type="curve"/>
      <point x="635" y="403"/>
      <point x="679" y="423"/>
      <point x="740" y="423" type="curve" smooth="yes"/>
      <point x="741" y="423"/>
      <point x="743" y="423"/>
      <point x="744" y="423" type="curve" smooth="yes"/>
      <point x="779" y="422"/>
      <point x="799" y="406"/>
      <point x="799" y="371" type="curve" smooth="yes"/>
      <point x="799" y="352"/>
      <point x="794" y="329"/>
    </contour>
  </outline>
</glyph>
<glyph name="n" format="1">
  <advance width="572"/>
  <unicode hex="006E"/>
  <outline>
    <contour>
      <point x="324" y="466" type="line"/>
      <point x="201" y="442" type="line"/>
      <point x="236" y="384" type="line"/>
      <point x="116" y="55" type="line"/>
      <point x="40" y="0" type="line"/>
      <point x="219" y="0" type="line"/>
      <point x="184" y="55" type="line"/>
      <point x="303" y="381" type="line"/>
    </contour>
    <contour>
      <point x="523" y="299" type="curve" smooth="yes"/>
      <point x="434" y="55" type="line"/>
      <point x="358" y="0" type="line"/>
      <point x="537" y="0" type="line"/>
      <point x="502" y="55" type="line"/>
      <point x="593" y="305" type="line" smooth="yes"/>
      <point x="605" y="337"/>
      <point x="610" y="363"/>
      <point x="610" y="385" type="curve" smooth="yes"/>
      <point x="610" y="440"/>
      <point x="577" y="465"/>
      <point x="518" y="465" type="curve" smooth="yes"/>
      <point x="439" y="465"/>
      <point x="360" y="424"/>
      <point x="303" y="381" type="curve"/>
      <point x="356" y="408"/>
      <point x="401" y="423"/>
      <point x="463" y="423" type="curve" smooth="yes"/>
      <point x="465" y="423"/>
      <point x="467" y="423"/>
      <point x="469" y="423" type="curve" smooth="yes"/>
      <point x="513" y="422"/>
      <point x="537" y="405"/>
      <point x="537" y="364" type="curve" smooth="yes"/>
      <point x="537" y="347"/>
      <point x="532" y="325"/>
    </contour>
  </outline>
</glyph>
<glyph name="o" format="1">
  <advance width="534"/>
  <unicode hex="006F"/>
  <outline>
    <contour>
      <point x="436" y="465" type="curve" smooth="yes"/>
      <point x="273" y="465"/>
      <point x="92" y="287"/>
      <point x="92" y="144" type="curve" smooth="yes"/>
      <point x="92" y="51"/>
      <point x="156" y="-15"/>
      <point x="262" y="-15" type="curve" smooth="yes"/>
      <point x="423" y="-15"/>
      <point x="606" y="163"/>
      <point x="606" y="306" type="curve" smooth="yes"/>
      <point x="606" y="398"/>
      <point x="541" y="465"/>
    </contour>
    <contour>
      <point x="283" y="45" type="curve" smooth="yes"/>
      <point x="210" y="45"/>
      <point x="165" y="93"/>
      <point x="165" y="162" type="curve" smooth="yes"/>
      <point x="165" y="273"/>
      <point x="300" y="417"/>
      <point x="419" y="417" type="curve" smooth="yes"/>
      <point x="491" y="417"/>
      <point x="536" y="368"/>
      <point x="536" y="299" type="curve" smooth="yes"/>
      <point x="536" y="187"/>
      <point x="401" y="45"/>
    </contour>
  </outline>
</glyph>
<glyph name="p" format="1">
  <advance width="593"/>
  <unicode hex="0070"/>
  <outline>
    <contour>
      <point x="91" y="-179" type="line"/>
      <point x="306" y="412" type="line"/>
      <point x="356" y="449" type="line"/>
      <point x="195" y="449" type="line"/>
      <point x="231" y="394" type="line"/>
      <point x="24" y="-175" type="line"/>
      <point x="-52" y="-230" type="line"/>
      <point x="127" y="-230" type="line"/>
    </contour>
    <contour>
      <point x="491" y="-16"/>
      <point x="660" y="180"/>
      <point x="660" y="317" type="curve" smooth="yes"/>
      <point x="660" y="407"/>
      <point x="603" y="464"/>
      <point x="512" y="464" type="curve" smooth="yes"/>
      <point x="439" y="464"/>
      <point x="364" y="433"/>
      <point x="307" y="386" type="curve"/>
      <point x="352" y="414"/>
      <point x="404" y="432"/>
      <point x="455" y="432" type="curve" smooth="yes"/>
      <point x="533" y="432"/>
      <point x="579" y="380"/>
      <point x="579" y="305" type="curve" smooth="yes"/>
      <point x="579" y="180"/>
      <point x="433" y="16"/>
      <point x="304" y="16" type="curve" smooth="yes"/>
      <point x="253" y="16"/>
      <point x="213" y="34"/>
      <point x="190" y="62" type="curve"/>
      <point x="211" y="15"/>
      <point x="264" y="-16"/>
      <point x="337" y="-16" type="curve" smooth="yes"/>
    </contour>
  </outline>
</glyph>
<glyph name="s" format="1">
  <advance width="429"/>
  <unicode hex="0073"/>
  <outline>
    <contour>
      <point x="321" y="276" type="curve" smooth="yes"/>
      <point x="254" y="295"/>
      <point x="221" y="308"/>
      <point x="221" y="335" type="curve" smooth="yes"/>
      <point x="221" y="367"/>
      <point x="262" y="408"/>
      <point x="357" y="408" type="curve" smooth="yes"/>
      <point x="413" y="408"/>
      <point x="464" y="389"/>
      <point x="467" y="333" type="curve"/>
      <point x="520" y="447" type="line"/>
      <point x="457" y="447" type="line"/>
      <point x="478" y="423" type="line"/>
      <point x="474" y="451"/>
      <point x="430" y="465"/>
      <point x="382" y="465" type="curve" smooth="yes"/>
      <point x="292" y="465"/>
      <point x="183" y="372"/>
      <point x="183" y="297" type="curve" smooth="yes"/>
      <point x="183" y="249"/>
      <point x="224" y="221"/>
      <point x="297" y="200" type="curve" smooth="yes"/>
      <point x="359" y="183"/>
      <point x="404" y="163"/>
      <point x="404" y="127" type="curve" smooth="yes"/>
      <point x="404" y="91"/>
      <point x="361" y="45"/>
      <point x="249" y="45" type="curve" smooth="yes"/>
      <point x="155" y="45"/>
      <point x="115" y="90"/>
      <point x="115" y="151" type="curve" smooth="yes"/>
      <point x="115" y="154"/>
      <point x="115" y="158"/>
      <point x="115" y="162" type="curve"/>
      <point x="32" y="11" type="line"/>
      <point x="99" y="45" type="line"/>
      <point x="78" y="56" type="line"/>
      <point x="99" y="11"/>
      <point x="143" y="-15"/>
      <point x="226" y="-15" type="curve" smooth="yes"/>
      <point x="338" y="-15"/>
      <point x="446" y="80"/>
      <point x="446" y="164" type="curve" smooth="yes"/>
      <point x="446" y="218"/>
      <point x="402" y="253"/>
    </contour>
  </outline>
</glyph>
<glyph name="t" format="1">
  <advance width="421"/>
  <unicode hex="0074"/>
  <outline>
    <contour>
      <point x="146" y="128" type="line" smooth="yes"/>
      <point x="137" y="105"/>
      <point x="134" y="85"/>
      <point x="134" y="68" type="curve" smooth="yes"/>
      <point x="134" y="12"/>
      <point x="174" y="-15"/>
      <point x="233" y="-15" type="curve" smooth="yes"/>
      <point x="270" y="-15"/>
      <point x="308" y="-10"/>
      <point x="342" y="9" type="curve"/>
      <point x="379" y="9" type="line"/>
      <point x="420" y="120" type="line"/>
      <point x="374" y="76"/>
      <point x="308" y="35"/>
      <point x="251" y="35" type="curve" smooth="yes"/>
      <point x="218" y="35"/>
      <point x="202" y="47"/>
      <point x="202" y="75" type="curve" smooth="yes"/>
      <point x="202" y="89"/>
      <point x="206" y="106"/>
      <point x="214" y="128" type="curve" smooth="yes"/>
      <point x="376" y="573" type="line"/>
      <point x="292" y="531" type="line"/>
    </contour>
    <contour>
      <point x="485" y="406" type="line"/>
      <point x="503" y="377" type="line"/>
      <point x="540" y="479" type="line"/>
      <point x="501" y="450" type="line"/>
      <point x="218" y="450" type="line"/>
      <point x="199" y="479" type="line"/>
      <point x="162" y="377" type="line"/>
      <point x="202" y="406" type="line"/>
    </contour>
  </outline>
</glyph>
<glyph name="u" format="1">
  <advance width="562"/>
  <unicode hex="0075"/>
  <outline>
    <contour>
      <point x="408" y="0" type="line"/>
      <point x="522" y="0" type="line"/>
      <point x="490" y="66" type="line"/>
      <point x="633" y="460" type="line"/>
      <point x="487" y="450" type="line"/>
      <point x="538" y="385" type="line"/>
      <point x="423" y="69" type="line"/>
    </contour>
    <contour>
      <point x="223" y="151" type="curve"/>
      <point x="335" y="460" type="line"/>
      <point x="199" y="450" type="line"/>
      <point x="240" y="385" type="line"/>
      <point x="153" y="145" type="line" smooth="yes"/>
      <point x="141" y="111"/>
      <point x="135" y="83"/>
      <point x="135" y="61" type="curve" smooth="yes"/>
      <point x="135" y="9"/>
      <point x="165" y="-15"/>
      <point x="218" y="-15" type="curve" smooth="yes"/>
      <point x="293" y="-15"/>
      <point x="367" y="27"/>
      <point x="423" y="69" type="curve"/>
      <point x="372" y="43"/>
      <point x="330" y="27"/>
      <point x="272" y="27" type="curve" smooth="yes"/>
      <point x="270" y="27"/>
      <point x="269" y="27"/>
      <point x="267" y="27" type="curve" smooth="yes"/>
      <point x="229" y="28"/>
      <point x="208" y="44"/>
      <point x="208" y="82" type="curve" smooth="yes"/>
      <point x="208" y="100"/>
      <point x="213" y="123"/>
    </contour>
  </outline>
</glyph>
<glyph name="v" format="1">
  <advance width="520"/>
  <unicode hex="0076"/>
  <outline>
    <contour>
      <point x="511" y="450" type="line"/>
      <point x="534" y="410" type="line"/>
      <point x="359" y="180" type="line"/>
      <point x="268" y="40" type="line"/>
      <point x="282" y="40" type="line"/>
      <point x="294" y="180" type="line"/>
      <point x="284" y="410" type="line"/>
      <point x="338" y="450" type="line"/>
      <point x="159" y="450" type="line"/>
      <point x="219" y="356" type="line"/>
      <point x="255" y="-14" type="line"/>
      <point x="561" y="356" type="line"/>
      <point x="689" y="450" type="line"/>
    </contour>
  </outline>
</glyph>
<glyph name="Adieresis" format="1">
  <advance width="870"/>
  <unicode hex="00C4"/>
  <outline>
    <contour>
      <point x="825" y="0" type="line"/>
      <point x="759" y="67" type="line"/>
      <point x="759" y="67" type="line"/>
      <point x="439" y="747" type="line"/>
      <point x="118" y="67" type="line"/>
      <point x="118" y="67" type="line"/>
      <point x="52" y="0" type="line"/>
      <point x="250" y="0" type="line"/>
      <point x="206" y="44" type="line"/>
      <point x="331" y="356" type="line"/>
      <point x="546" y="356" type="line"/>
      <point x="671" y="44" type="line"/>
      <point x="627" y="0" type="line"/>
    </contour>
    <contour>
      <point x="349" y="399" type="line"/>
      <point x="439" y="624" type="line"/>
      <point x="529" y="399" type="line"/>
    </contour>
    <contour>
      <point x="589" y="821" type="line"/>
      <point x="528" y="882" type="line"/>
      <point x="528" y="882" type="line"/>
      <point x="467" y="821" type="line"/>
      <point x="467" y="821" type="line"/>
      <point x="528" y="760" type="line"/>
      <point x="528" y="760" type="line"/>
    </contour>
    <contour>
      <point x="409" y="821" type="line"/>
      <point x="348" y="882" type="line"/>
      <point x="348" y="882" type="line"/>
      <point x="287" y="821" type="line"/>
      <point x="287" y="821" type="line"/>
      <point x="348" y="760" type="line"/>
      <point x="348" y="760" type="line"/>
    </contour>
  </outline>
</glyph>
<glyph name="Ccedilla" format="1">
  <advance width="773"/>
  <unicode hex="00C7"/>
  <outline>
    <contour>
      <point x="423" y="55" type="curve" smooth="yes"/>
      <point x="245" y="55"/>
      <point x="101" y="203"/>
      <point x="101" y="360" type="curve" smooth="yes"/>
      <point x="101" y="517"/>
      <point x="245" y="665"/>
      <point x="423" y="665" type="curve" smooth="yes"/>
      <point x="557" y="665"/>
      <point x="672" y="572"/>
      <point x="721" y="469" type="curve"/>
      <point x="710" y="654" type="line"/>
      <point x="646" y="654" type="line"/>
      <point x="583" y="695"/>
      <point x="506" y="718"/>
      <point x="423" y="718" type="curve" smooth="yes"/>
      <point x="205" y="718"/>
      <point x="29" y="556"/>
      <point x="29" y="355" type="curve" smooth="yes"/>
      <point x="29" y="183"/>
      <point x="159" y="38"/>
      <point x="334" y="1" type="curve"/>
      <point x="301" y="-44" type="line"/>
      <point x="258" y="-102" type="line"/>
      <point x="189" y="-196" type="line"/>
      <point x="241" y="-196"/>
      <point x="307" y="-149"/>
      <point x="339" y="-123" type="curve"/>
      <point x="401" y="-77" type="line"/>
      <point x="512" y="1" type="line"/>
      <point x="565" y="12"/>
      <point x="613" y="33"/>
      <point x="655" y="61" type="curve"/>
      <point x="710" y="61" type="line"/>
      <point x="711" y="218" type="line"/>
      <point x="656" y="133"/>
      <point x="542" y="55"/>
    </contour>
  </outline>
</glyph>
<glyph name="Edieresis" format="1">
  <advance width="630"/>
  <unicode hex="00CB"/>
  <outline>
    <contour>
      <point x="412" y="821" type="line"/>
      <point x="351" y="882" type="line"/>
      <point x="351" y="882" type="line"/>
      <point x="290" y="821" type="line"/>
      <point x="290" y="821" type="line"/>
      <point x="351" y="760" type="line"/>
      <point x="351" y="760" type="line"/>
    </contour>
    <contour>
      <point x="232" y="821" type="line"/>
      <point x="171" y="882" type="line"/>
      <point x="171" y="882" type="line"/>
      <point x="110" y="821" type="line"/>
      <point x="110" y="821" type="line"/>
      <point x="171" y="760" type="line"/>
      <point x="171" y="760" type="line"/>
    </contour>
    <component base="E" yOffset="-1"/>
  </outline>
</glyph>
<glyph name="Igrave" format="1">
  <advance width="305"/>
  <unicode hex="00CC"/>
  <outline>
    <contour>
      <point x="207" y="866" type="line"/>
      <point x="207" y="866"/>
      <point x="183" y="838"/>
      <point x="183" y="803" type="curve" smooth="yes"/>
      <point x="183" y="768"/>
      <point x="237" y="732"/>
      <point x="237" y="732" type="curve"/>
      <point x="237" y="732"/>
      <point x="103" y="771"/>
      <point x="59" y="866" type="curve"/>
    </contour>
    <component base="I" yOffset="-1"/>
  </outline>
</glyph>
<glyph name="Icircumflex" format="1">
  <advance width="305"/>
  <unicode hex="00CE"/>
  <outline>
    <contour>
      <point x="148" y="899" type="line"/>
      <point x="-7" y="744" type="line"/>
      <point x="66" y="744" type="line"/>
      <point x="148" y="844" type="line"/>
      <point x="231" y="744" type="line"/>
      <point x="303" y="744" type="line"/>
    </contour>
    <component base="I" yOffset="-1"/>
  </outline>
</glyph>
<glyph name="Ograve" format="1">
  <advance width="897"/>
  <unicode hex="00D2"/>
  <outline>
    <contour>
      <point x="507" y="866" type="line"/>
      <point x="507" y="866"/>
      <point x="483" y="838"/>
      <point x="483" y="803" type="curve" smooth="yes"/>
      <point x="483" y="768"/>
      <point x="537" y="732"/>
      <point x="537" y="732" type="curve"/>
      <point x="537" y="732"/>
      <point x="403" y="771"/>
      <point x="359" y="866" type="curve"/>
    </contour>
    <component base="O" xOffset="20" yOffset="-1"/>
  </outline>
</glyph>
<glyph name="Odieresis" format="1">
  <advance width="897"/>
  <unicode hex="00D6"/>
  <outline>
    <contour>
      <point x="582" y="821" type="line"/>
      <point x="521" y="882" type="line"/>
      <point x="521" y="882" type="line"/>
      <point x="460" y="821" type="line"/>
      <point x="460" y="821" type="line"/>
      <point x="521" y="760" type="line"/>
      <point x="521" y="760" type="line"/>
    </contour>
    <contour>
      <point x="402" y="821" type="line"/>
      <point x="341" y="882" type="line"/>
      <point x="341" y="882" type="line"/>
      <point x="280" y="821" type="line"/>
      <point x="280" y="821" type="line"/>
      <point x="341" y="760" type="line"/>
      <point x="341" y="760" type="line"/>
    </contour>
    <component base="O" xOffset="20" yOffset="-1"/>
  </outline>
</glyph>
<glyph name="endash" format="1">
  <advance width="575"/>
  <unicode hex="2013"/>
  <outline>
    <contour>
      <point x="502" y="356" type="line"/>
      <point x="71" y="356" type="line"/>
      <point x="71" y="400" type="line"/>
      <point x="502" y="400" type="line"/>
    </contour>
  </outline>
</glyph>
<glyph name="ellipsis" format="1">
  <advance width="534"/>
  <unicode hex="2026"/>
  <outline>
    <contour>
      <point x="152" y="31" type="line"/>
      <point x="152" y="31" type="line"/>
      <point x="91" y="92" type="line"/>
      <point x="91" y="92" type="line"/>
      <point x="30" y="31" type="line"/>
      <point x="30" y="31" type="line"/>
      <point x="91" y="-30" type="line"/>
      <point x="91" y="-30" type="line"/>
    </contour>
    <contour>
      <point x="91" y="31" type="line"/>
      <point x="91" y="31" type="line"/>
      <point x="91" y="31" type="line"/>
      <point x="91" y="31" type="line"/>
    </contour>
    <contour>
      <point x="330" y="31" type="line"/>
      <point x="330" y="31" type="line"/>
      <point x="269" y="92" type="line"/>
      <point x="269" y="92" type="line"/>
      <point x="208" y="31" type="line"/>
      <point x="208" y="31" type="line"/>
      <point x="269" y="-30" type="line"/>
      <point x="269" y="-30" type="line"/>
    </contour>
    <contour>
      <point x="269" y="31" type="line"/>
      <point x="269" y="31" type="line"/>
      <point x="269" y="31" type="line"/>
      <point x="269" y="31" type="line"/>
    </contour>
    <contour>
      <point x="508" y="31" type="line"/>
      <point x="508" y="31" type="line"/>
      <point x="447" y="92" type="line"/>
      <point x="447" y="92" type="line"/>
      <point x="386" y="31" type="line"/>
      <point x="386" y="31" type="line"/>
      <point x="447" y="-30" type="line"/>
      <point x="447" y="-30" type="line"/>
    </contour>
    <contour>
      <point x="447" y="31" type="line"/>
      <point x="447" y="31" type="line"/>
      <point x="447" y="31" type="line"/>
      <point x="447" y="31" type="line"/>
    </contour>
  </outline>
</glyph>
